{"accessors":[{"bufferView":0,"componentType":5125,"count":6,"type":"SCALAR"},{"bufferView":1,"componentType":5126,"count":4,"max":[1,1,0],"min":[-1,-1,0],"type":"VEC3"},{"bufferView":2,"componentType":5126,"count":4,"type":"VEC3"},{"bufferView":3,"componentType":5126,"count":4,"type":"VEC2"}],"asset":{"generator":"Substance Painter 2017.3.0","version":"2.0"},"bufferViews":[{"buffer":0,"byteLength":24,"byteOffset":0,"target":34963},{"buffer":0,"byteLength":48,"byteOffset":24,"target":34962},{"buffer":0,"byteLength":48,"byteOffset":72,"target":34962},{"buffer":0,"byteLength":32,"byteOffset":120,"target":34962}],"buffers":[{"byteLength":152,"uri":"TexturePlane.bin"}],"images":[{"uri":"lambert2_baseColor.png"},{"uri":"lambert2_occlusionRoughnessMetallic.png"},{"uri":"lambert2_normal.png"},{"uri":"lambert2_emissive.png"}],"materials":[{"alphaMode":"BLEND","emissiveFactor":[1,1,1],"emissiveTexture":{"index":3},"name":"lambert2","normalTexture":{"index":2},"occlusionTexture":{"index":1},"pbrMetallicRoughness":{"baseColorTexture":{"index":0},"metallicRoughnessTexture":{"index":1}}}],"meshes":[{"name":"TexturePlane_LO","primitives":[{"attributes":{"NORMAL":2,"POSITION":1,"TEXCOORD_0":3},"indices":0,"material":0,"mode":4}]}],"nodes":[{"children":[1],"name":"root","scale":[10,10,10],"translation":[0,0,0]},{"children":[2],"name":"TexturePlane_LO"},{"mesh":0,"name":"TexturePlane_LO"}],"samplers":[{"magFilter":9729,"minFilter":9985,"wrapS":10497,"wrapT":10497}],"scene":0,"scenes":[{"name":"Scene","nodes":[0]}],"textures":[{"sampler":0,"source":0},{"sampler":0,"source":1},{"sampler":0,"source":2},{"sampler":0,"source":3}]}
